# xmcd
#
# Track frame offsets: 
#        150
#        12915
#        26670
#        38270
#        52477
#        65275
#        77985
#        93280
#        111795
#        128740
#        143647
#        158465
#        174362
#        192987
#        212070
#        225630
#        237080
#        248355
#        264057
#
# Disc length: 3693 seconds
#
# Revision: 1
# Processed by: cddbd v1.5.1PL0 Copyright (c) Steve Scherf et al.
# Submitted via: ExactAudioCopy v0.95a5
#
DISCID=e70e6b13
DTITLE=Joe Ely - Time For Travelin' - The Best Of Joe Ely, Vol. 2
DYEAR=1995
DGENRE=Country
TTITLE0=Mardi Gras Waltz
TTITLE1=Tennessee's No The State I'm In
TTITLE2=Gambler's Bride
TTITLE3=All My Love
TTITLE4=Jericho (Your Walls Must Come Tumbling Down)
TTITLE5=I'll Be Your Fool
TTITLE6=Cornbread Moon
TTITLE7=Standin' At The Big Hotel
TTITLE8=Crazy Lemon
TTITLE9=Crawdad Train
TTITLE10=In Another World
TTITLE11=She Leaves You Where You Are
TTITLE12=Time For Travelin'
TTITLE13=Wishin' For You
TTITLE14=Hold On
TTITLE15=I Keep Gettin' Paid The Same
TTITLE16=Road Hawg
TTITLE17=Dam Of My Heart
TTITLE18=Bet Me
EXTD=
EXTT0=
EXTT1=
EXTT2=
EXTT3=
EXTT4=
EXTT5=
EXTT6=
EXTT7=
EXTT8=
EXTT9=
EXTT10=
EXTT11=
EXTT12=
EXTT13=
EXTT14=
EXTT15=
EXTT16=
EXTT17=
EXTT18=
PLAYORDER=
